<?xml version="1.0" encoding="utf-8"?>
<svg id="Layer_1" style="enable-background:new 0 0 96 96;" x="0px" y="0px" viewBox="0 0 96 96" xmlns="http://www.w3.org/2000/svg">
  <style type="text/css">
	.st0{fill:#333333;}
</style>
  <g transform="matrix(0.800604, 0, 0, 0.800604, 0, 0)">
    <path fill="#B0B0AF" d="M120,108c0,6.6-5.4,12-12,12H12c-6.6,0-12-5.4-12-12V12C0,5.4,5.4,0,12,0h96c6.6,0,12,5.4,12,12V108z"/>
  </g>
  <g id="XMLID_2_" transform="matrix(1.611948, 0, 0, 1.611948, -28.894493, -29.852526)">
    <path id="XMLID_7_" class="st0" d="M52.2,33.5l10.3,10.3L43.8,62.5L33.5,52.2L52.2,33.5z M45.3,65.4l20.2-20.2&#10;&#9;&#9;c0.4-0.4,0.6-0.9,0.6-1.5s-0.2-1.1-0.6-1.5L53.6,30.5c-0.4-0.4-0.9-0.6-1.5-0.6c-0.6,0-1.1,0.2-1.5,0.6L30.5,50.7&#10;&#9;&#9;c-0.4,0.4-0.6,0.9-0.6,1.5c0,0.6,0.2,1.1,0.6,1.5l11.8,11.8c0.4,0.4,0.9,0.6,1.5,0.6S44.9,65.8,45.3,65.4z M74.3,44.7L44.7,74.3&#10;&#9;&#9;c-0.8,0.8-1.8,1.2-3,1.2c-1.2,0-2.1-0.4-3-1.2l-4.1-4.1c1.2-1.2,1.8-2.7,1.8-4.4s-0.6-3.2-1.8-4.4c-1.2-1.2-2.7-1.8-4.4-1.8&#10;&#9;&#9;c-1.7,0-3.2,0.6-4.4,1.8l-4.1-4.1c-0.8-0.8-1.2-1.8-1.2-3s0.4-2.1,1.2-3l29.6-29.6c0.8-0.8,1.8-1.2,3-1.2s2.1,0.4,3,1.2l4.1,4.1&#10;&#9;&#9;c-1.2,1.2-1.8,2.7-1.8,4.4c0,1.7,0.6,3.2,1.8,4.4c1.2,1.2,2.7,1.8,4.4,1.8s3.2-0.6,4.4-1.8l4.1,4.1c0.8,0.8,1.2,1.8,1.2,3&#10;&#9;&#9;C75.5,42.9,75.1,43.8,74.3,44.7z"/>
  </g>
</svg>